<svg width="16" height="16" viewBox="0 0 16 16" fill="none" xmlns="http://www.w3.org/2000/svg">
<path fill-rule="evenodd" clip-rule="evenodd" d="M10.3515 5.49936L14.025 1.82349L15.0766 2.87492L11.403 6.55086L10.3515 5.49936ZM8.8629 9.25592C8.14396 9.25592 7.56152 8.67092 7.56152 7.94855C7.56152 7.22692 8.14396 6.64117 8.8629 6.64117C9.58184 6.64117 10.1643 7.22692 10.1643 7.94855C10.1643 8.67092 9.58184 9.25592 8.8629 9.25592ZM15.0937 13.0528L14.0422 14.105L10.3686 10.429L11.4201 9.3768L15.0937 13.0528Z" fill="white"/>
<path fill-rule="evenodd" clip-rule="evenodd" d="M8.90081 13.6023C9.64131 13.6023 10.3468 13.4546 10.9934 13.1919L12.7877 14.9881C11.637 15.6306 10.3125 16 8.90081 16C4.48594 16 0.90625 12.4181 0.90625 8.00037C0.90625 3.58194 4.48594 0 8.90081 0C10.2984 0 11.6109 0.360438 12.7534 0.991L10.9889 2.75731C10.3431 2.49613 9.63987 2.34838 8.90081 2.34838C5.80894 2.34838 3.30238 4.86769 3.30238 7.97575C3.30238 11.083 5.80887 13.6023 8.90081 13.6023Z" fill="#03A9F4"/>
</svg>
