<svg width="64" height="64" viewBox="0 0 64 64" fill="none" xmlns="http://www.w3.org/2000/svg">
<circle cx="32" cy="32" r="32" fill="#F2F2F7"/>
<g clip-path="url(#clip0_158_317)">
<path d="M21.6843 45.9844H42.7348C44.4144 45.9844 45.4191 45.2061 45.4191 43.9144C45.4191 39.8987 40.3487 34.358 32.2017 34.358C24.0703 34.358 19 39.8987 19 43.9144C19 45.2061 20.0046 45.9844 21.6843 45.9844ZM32.2174 31.5719C35.5767 31.5719 38.4965 28.5836 38.4965 24.6926C38.4965 20.8482 35.5767 18 32.2174 18C28.8581 18 25.9384 20.9105 25.9384 24.7237C25.9384 28.5836 28.8424 31.5719 32.2174 31.5719Z" fill="black" fill-opacity="0.85"/>
</g>
<defs>
<clipPath id="clip0_158_317">
<rect width="27" height="28" fill="white" transform="translate(19 18)"/>
</clipPath>
</defs>
</svg>
